<svg width="26" height="25" viewBox="0 0 26 25" fill="none" xmlns="http://www.w3.org/2000/svg">
<path d="M16.75 22.7269H21.3036C21.7471 22.7269 22.1071 22.3669 22.1071 21.9233V12.2804H22.1404C21.9614 12.1915 21.7921 12.0822 21.6368 11.9526L21.2071 11.5937C21.1075 11.5122 20.9639 11.5122 20.8643 11.5947L20.6886 11.7415C20.0618 12.2622 19.2732 12.5483 18.4589 12.5483H18.2168C17.4079 12.5483 16.6236 12.2665 16 11.7512L15.8029 11.5883C15.7032 11.5069 15.5607 11.5069 15.4621 11.5883L15.2639 11.7522C14.6393 12.2665 13.855 12.5483 13.0471 12.5483H12.9004C12.1021 12.5483 11.3275 12.274 10.7082 11.7715L10.4768 11.584C10.3771 11.5037 10.2346 11.5047 10.1371 11.5862L9.95178 11.7415C9.325 12.2633 8.53642 12.5483 7.72214 12.5483H7.53142C6.72464 12.5483 5.94357 12.2687 5.32 11.7565L5.11214 11.5851C5.0125 11.5037 4.87107 11.5037 4.77142 11.5851L4.26678 12.0008C4.135 12.109 3.99142 12.2033 3.84142 12.2804H3.89285V21.9233C3.89285 22.3669 4.25285 22.7269 4.69642 22.7269H9.25V16.0304C9.25 15.2912 9.85 14.6912 10.5893 14.6912H15.4107C16.15 14.6912 16.75 15.2912 16.75 16.0304V22.7269ZM1.93535 6.65545H24.0646C24.0357 6.55902 24.0046 6.46366 23.9693 6.36938L22.7361 3.01795C22.4532 2.30331 21.7621 1.83402 20.9939 1.83402H5.00714C4.23785 1.83402 3.54678 2.30331 3.27035 2.99974L2.03071 6.36938C1.99535 6.46366 1.96428 6.55902 1.93535 6.65545ZM24.25 8.26259H1.75V10.1376C1.75 10.5812 2.11 10.9412 2.55357 10.9412H2.73678C2.92321 10.9412 3.10321 10.8769 3.24678 10.759L3.75142 10.3444C4.4425 9.77545 5.44107 9.77545 6.13214 10.3444L6.34 10.5147C6.67535 10.7901 7.09642 10.9412 7.53142 10.9412H7.72214C8.16035 10.9412 8.58571 10.788 8.92214 10.5072L9.10857 10.3519C9.79642 9.77866 10.7939 9.77224 11.4882 10.3358L11.7196 10.5222C12.0539 10.7933 12.4707 10.9412 12.9004 10.9412H13.0471C13.4821 10.9412 13.9043 10.789 14.2407 10.5126L14.4389 10.3487C15.1311 9.77652 16.1329 9.77652 16.8261 10.3487L17.0232 10.5126C17.3586 10.789 17.7807 10.9412 18.2168 10.9412H18.4589C18.8971 10.9412 19.3225 10.7869 19.66 10.5062L19.8357 10.3605C20.53 9.77974 21.5414 9.77974 22.2357 10.3594L22.6664 10.7183C22.8389 10.8619 23.0575 10.9412 23.2836 10.9412C23.8182 10.9412 24.25 10.5094 24.25 9.97688V8.26259ZM23.7143 12.5129V21.9233C23.7143 23.2551 22.6354 24.334 21.3036 24.334H4.69642C3.36464 24.334 2.28571 23.2551 2.28571 21.9233V12.5333C1.08035 12.4004 0.142853 11.3783 0.142853 10.1376V7.94224C0.142853 7.21474 0.271424 6.49474 0.522139 5.81331L1.76928 2.42545C2.29642 1.09795 3.57892 0.226879 5.00714 0.226879H20.9939C22.4211 0.226879 23.7036 1.09795 24.2371 2.44366L25.4779 5.81331C25.7286 6.49474 25.8571 7.21474 25.8571 7.94224V9.97688C25.8571 11.2508 24.9304 12.3083 23.7143 12.5129ZM15.1429 22.7269V16.2983H10.8571V22.7269H15.1429Z" fill="white"/>
</svg>
