<svg width="26" height="25" viewBox="0 0 26 25" fill="none" xmlns="http://www.w3.org/2000/svg">
<path d="M7.37503 24.5535C6.93146 24.5535 6.57146 24.1935 6.57146 23.75C6.57146 23.3064 6.93146 22.9464 7.37503 22.9464H18.625C19.0686 22.9464 19.4286 23.3064 19.4286 23.75C19.4286 24.1935 19.0686 24.5535 18.625 24.5535H7.37503ZM16.389 11.2635L10.9161 14.5603C10.419 14.8593 9.78575 14.5025 9.78575 13.9218V7.32711C9.78575 6.74747 10.419 6.38961 10.9161 6.68854L16.389 9.9864C16.87 10.2757 16.87 10.9732 16.389 11.2635ZM21.3036 19.1964C22.6343 19.1964 23.7143 18.1164 23.7143 16.7857V4.46425C23.7143 3.13354 22.6343 2.05354 21.3036 2.05354H4.69646C3.36575 2.05354 2.28575 3.13354 2.28575 4.46425V16.7857C2.28575 18.1164 3.36575 19.1964 4.69646 19.1964H21.3036ZM21.3036 20.8035H4.69646C2.47753 20.8035 0.678604 19.0046 0.678604 16.7857V4.46425C0.678604 2.24532 2.47753 0.446396 4.69646 0.446396H21.3036C23.5225 0.446396 25.3215 2.24532 25.3215 4.46425V16.7857C25.3215 19.0046 23.5225 20.8035 21.3036 20.8035Z" fill="white"/>
</svg>
