<svg width="26" height="25" viewBox="0 0 26 25" fill="none" xmlns="http://www.w3.org/2000/svg">
<path d="M24.0576 12.5C24.0576 6.39326 19.1067 1.4423 13 1.4423C6.89322 1.4423 1.94226 6.39326 1.94226 12.5C1.94226 18.6067 6.89322 23.5577 13 23.5577C19.1067 23.5577 24.0576 18.6067 24.0576 12.5ZM25.5 12.5C25.5 19.4038 19.9038 25 13 25C6.09611 25 0.499954 19.4038 0.499954 12.5C0.499954 5.59615 6.09611 -7.62939e-06 13 -7.62939e-06C19.9038 -7.62939e-06 25.5 5.59615 25.5 12.5ZM6.72976 12.5H6.87592C7.1663 12.5 7.3288 12.825 7.16726 13.0683C6.59034 13.9336 6.25284 14.9692 6.25284 16.0808V16.5586C6.25284 16.675 6.25957 16.7894 6.27303 16.9019C6.29803 17.1173 6.13649 17.3077 5.92015 17.3077H5.42592C4.56534 17.3077 3.86534 16.5865 3.86534 15.699C3.86534 13.9346 5.04515 12.5 6.72976 12.5ZM19.2701 12.5C20.9557 12.5 22.1346 13.9346 22.1346 15.699C22.1346 16.5865 21.4346 17.3077 20.575 17.3077H20.0807C19.8644 17.3077 19.7019 17.1173 19.7278 16.9019C19.7403 16.7894 19.7471 16.675 19.7471 16.5586V16.0808C19.7471 14.9692 19.4105 13.9336 18.8336 13.0683C18.6721 12.825 18.8336 12.5 19.124 12.5H19.2701ZM7.47111 11.5385C6.41053 11.5385 5.54803 10.5683 5.54803 9.37499C5.54803 8.06153 6.30284 7.21153 7.47111 7.21153C8.63938 7.21153 9.39419 8.06153 9.39419 9.37499C9.39419 10.5683 8.53168 11.5385 7.47111 11.5385ZM18.5288 11.5385C17.4682 11.5385 16.6057 10.5683 16.6057 9.37499C16.6057 8.06153 17.3605 7.21153 18.5288 7.21153C19.6971 7.21153 20.4519 8.06153 20.4519 9.37499C20.4519 10.5683 19.5894 11.5385 18.5288 11.5385ZM14.1269 12.0192C16.4211 12.0192 18.2884 13.8413 18.2884 16.0808V16.5586C18.2884 17.5019 17.5028 18.2692 16.5355 18.2692H9.46438C8.49707 18.2692 7.71149 17.5019 7.71149 16.5586V16.0808C7.71149 13.8413 9.57784 12.0192 11.873 12.0192H14.1269ZM15.6442 7.6923C15.6442 9.28365 14.4586 10.5769 13 10.5769C11.5423 10.5769 10.3557 9.28365 10.3557 7.6923C10.3557 5.91345 11.3692 4.80768 13 4.80768C14.6317 4.80768 15.6442 5.91345 15.6442 7.6923Z" fill="white"/>
</svg>
